<svg width="24" height="24" viewBox="0 0 24 24" fill="none" xmlns="http://www.w3.org/2000/svg">
<path d="M14 20.5714V16.4286C14 16.1919 14.2686 16 14.6 16H20.4C20.7314 16 21 16.1919 21 16.4286V20.5714C21 20.8081 20.7314 21 20.4 21H14.6C14.2686 21 14 20.8081 14 20.5714Z" stroke="#94A3B8"/>
<path d="M3 20.0571V10.9429C3 10.4221 3.26863 10 3.6 10H9.4C9.73137 10 10 10.4221 10 10.9429V20.0571C10 20.5779 9.73137 21 9.4 21H3.6C3.26863 21 3 20.5779 3 20.0571Z" stroke="#94A3B8"/>
<path d="M14 13.0571V3.94286C14 3.42213 14.2686 3 14.6 3H20.4C20.7314 3 21 3.42213 21 3.94286V13.0571C21 13.5779 20.7314 14 20.4 14H14.6C14.2686 14 14 13.5779 14 13.0571Z" stroke="#94A3B8"/>
<path d="M3 7.57143V3.42857C3 3.19188 3.26863 3 3.6 3H9.4C9.73137 3 10 3.19188 10 3.42857V7.57143C10 7.80812 9.73137 8 9.4 8H3.6C3.26863 8 3 7.80812 3 7.57143Z" stroke="#94A3B8"/>
</svg>
